<svg width="25" height="27" viewBox="0 0 25 27" fill="none" xmlns="http://www.w3.org/2000/svg">
<path d="M14.8514 14.2479L11.6554 14.881C11.6554 14.881 10.4095 16.9555 10.7619 18.7133C11.114 20.4716 15.0146 23.3541 15.0146 23.3541C15.0146 23.3541 15.2954 22.8844 15.6533 22.2003L15.6522 18.771C15.652 18.6272 15.8429 18.5771 15.9142 18.7023L16.6612 20.0094C17.0309 19.0489 17.2825 18.0887 17.154 17.4472C16.8016 15.6894 14.8514 14.2479 14.8514 14.2479ZM8.75804 2.35259L12.2798 1.56999C12.4819 1.53012 12.6786 1.66134 12.719 1.86336L14.7616 11.8741L14.7616 11.7736C14.9492 11.7364 15.1108 11.9098 15.0607 12.0941L14.6914 13.449L11.4954 14.082L10.6318 12.9709C10.5142 12.8198 10.5964 12.5986 10.7837 12.5615L8.46544 2.7909C8.42485 2.58907 8.55575 2.39264 8.75804 2.35259Z" fill="white"/>
<path fill-rule="evenodd" clip-rule="evenodd" d="M11.9666 22.3044L15.0101 25.0435L16.722 22.3044H20.6529C21.0317 22.3044 21.3779 22.5184 21.5473 22.8571L22.8951 25.5528C23.2276 26.2177 22.7441 27 22.0007 27H5.55353C4.83995 27 4.356 26.2741 4.63045 25.6154L5.75364 22.9197C5.90891 22.5471 6.27302 22.3044 6.67672 22.3044H11.9666Z" fill="white"/>
</svg>
