<svg width="160" height="27" viewBox="0 0 160 27" fill="none" xmlns="http://www.w3.org/2000/svg">
<path d="M0.486 20.3478C0.354 20.3478 0.24 20.2998 0.144 20.2038C0.048 20.1078 0 19.9938 0 19.8618V8.23381C0 8.10181 0.048 7.98781 0.144 7.89181C0.24 7.79581 0.354 7.74781 0.486 7.74781H3.33C3.57 7.74781 3.75 7.81381 3.87 7.94581C3.99 8.07781 4.068 8.17381 4.104 8.23381L6.714 12.5538L9.324 8.23381C9.36 8.17381 9.438 8.07781 9.558 7.94581C9.678 7.81381 9.858 7.74781 10.098 7.74781H12.942C13.074 7.74781 13.188 7.79581 13.284 7.89181C13.38 7.98781 13.428 8.10181 13.428 8.23381V19.8618C13.428 19.9938 13.38 20.1078 13.284 20.2038C13.188 20.2998 13.074 20.3478 12.942 20.3478H9.684C9.552 20.3478 9.438 20.2998 9.342 20.2038C9.246 20.1078 9.198 19.9938 9.198 19.8618V14.9298L8.01 16.8738C7.95 16.9698 7.866 17.0718 7.758 17.1798C7.662 17.2758 7.524 17.3238 7.344 17.3238H6.084C5.904 17.3238 5.76 17.2758 5.652 17.1798C5.556 17.0718 5.478 16.9698 5.418 16.8738L4.23 14.9298V19.8618C4.23 19.9938 4.182 20.1078 4.086 20.2038C3.99 20.2998 3.876 20.3478 3.744 20.3478H0.486Z" fill="white"/>
<path d="M16.622 20.3478C16.49 20.3478 16.376 20.2998 16.28 20.2038C16.184 20.1078 16.136 19.9938 16.136 19.8618V8.23381C16.136 8.10181 16.184 7.98781 16.28 7.89181C16.376 7.79581 16.49 7.74781 16.622 7.74781H25.856C25.988 7.74781 26.102 7.79581 26.198 7.89181C26.294 7.98781 26.342 8.10181 26.342 8.23381V10.7718C26.342 10.9038 26.294 11.0178 26.198 11.1138C26.102 11.2098 25.988 11.2578 25.856 11.2578H20.456V12.3918H25.46C25.592 12.3918 25.706 12.4398 25.802 12.5358C25.898 12.6318 25.946 12.7458 25.946 12.8778V15.2178C25.946 15.3498 25.898 15.4638 25.802 15.5598C25.706 15.6558 25.592 15.7038 25.46 15.7038H20.456V16.8378H26C26.132 16.8378 26.246 16.8858 26.342 16.9818C26.438 17.0778 26.486 17.1918 26.486 17.3238V19.8618C26.486 19.9938 26.438 20.1078 26.342 20.2038C26.246 20.2998 26.132 20.3478 26 20.3478H16.622Z" fill="white"/>
<path d="M29.3479 20.3478C29.2159 20.3478 29.1019 20.2998 29.0059 20.2038C28.9099 20.1078 28.8619 19.9938 28.8619 19.8618V8.23381C28.8619 8.10181 28.9099 7.98781 29.0059 7.89181C29.1019 7.79581 29.2159 7.74781 29.3479 7.74781H34.5319C35.6599 7.74781 36.6679 7.93981 37.5559 8.32381C38.4439 8.69581 39.1519 9.24781 39.6799 9.97981C40.2199 10.7118 40.5079 11.6178 40.5439 12.6978C40.5679 13.2138 40.5799 13.6698 40.5799 14.0658C40.5799 14.4498 40.5679 14.8878 40.5439 15.3798C40.4959 16.5078 40.2199 17.4438 39.7159 18.1878C39.2119 18.9198 38.5219 19.4658 37.6459 19.8258C36.7819 20.1738 35.7739 20.3478 34.6219 20.3478H29.3479ZM33.3619 16.8378H34.5319C34.7959 16.8378 35.0299 16.7898 35.2339 16.6938C35.4499 16.5858 35.6239 16.4238 35.7559 16.2078C35.8879 15.9918 35.9599 15.7158 35.9719 15.3798C35.9959 15.0318 36.0079 14.7198 36.0079 14.4438C36.0199 14.1678 36.0199 13.8918 36.0079 13.6158C36.0079 13.3278 35.9959 13.0218 35.9719 12.6978C35.9479 12.1938 35.7859 11.8278 35.4859 11.5998C35.1979 11.3718 34.8499 11.2578 34.4419 11.2578H33.3619V16.8378Z" fill="white"/>
<path d="M43.3921 20.3478C43.2601 20.3478 43.1461 20.2998 43.0501 20.2038C42.9541 20.1078 42.9061 19.9938 42.9061 19.8618V8.23381C42.9061 8.10181 42.9541 7.98781 43.0501 7.89181C43.1461 7.79581 43.2601 7.74781 43.3921 7.74781H47.0641C47.1961 7.74781 47.3101 7.79581 47.4061 7.89181C47.5021 7.98781 47.5501 8.10181 47.5501 8.23381V19.8618C47.5501 19.9938 47.5021 20.1078 47.4061 20.2038C47.3101 20.2998 47.1961 20.3478 47.0641 20.3478H43.3921Z" fill="white"/>
<path d="M49.659 20.3478C49.551 20.3478 49.455 20.3118 49.371 20.2398C49.299 20.1558 49.263 20.0598 49.263 19.9518C49.263 19.9038 49.269 19.8618 49.281 19.8258L53.295 8.34181C53.331 8.20981 53.415 8.07781 53.547 7.94581C53.679 7.81381 53.865 7.74781 54.105 7.74781H58.011C58.251 7.74781 58.437 7.81381 58.569 7.94581C58.701 8.07781 58.785 8.20981 58.821 8.34181L62.835 19.8258C62.847 19.8618 62.853 19.9038 62.853 19.9518C62.853 20.0598 62.8111 20.1558 62.727 20.2398C62.655 20.3118 62.565 20.3478 62.457 20.3478H59.127C58.8991 20.3478 58.731 20.2998 58.623 20.2038C58.527 20.0958 58.461 19.9938 58.425 19.8978L57.993 18.7098H54.123L53.691 19.8978C53.655 19.9938 53.589 20.0958 53.493 20.2038C53.397 20.2998 53.229 20.3478 52.989 20.3478H49.659ZM55.041 15.1998H57.0751L56.049 11.8518L55.041 15.1998Z" fill="white"/>
<path d="M73.8873 20.5278C72.7353 20.5278 71.7153 20.3598 70.8273 20.0238C69.9393 19.6878 69.2313 19.1598 68.7033 18.4398C68.1873 17.7198 67.9053 16.7898 67.8573 15.6498C67.8453 15.1578 67.8393 14.6298 67.8393 14.0658C67.8393 13.5018 67.8453 12.9618 67.8573 12.4458C67.9053 11.3298 68.1933 10.4118 68.7213 9.69181C69.2613 8.97181 69.9753 8.43781 70.8633 8.08981C71.7633 7.74181 72.7713 7.56781 73.8873 7.56781C74.6553 7.56781 75.3933 7.65781 76.1013 7.83781C76.8213 8.00581 77.4693 8.27581 78.0453 8.64781C78.6213 9.01981 79.0773 9.49981 79.4133 10.0878C79.7613 10.6638 79.9413 11.3598 79.9533 12.1758C79.9533 12.2838 79.9113 12.3798 79.8273 12.4638C79.7553 12.5358 79.6653 12.5718 79.5573 12.5718H75.8853C75.6933 12.5718 75.5493 12.5358 75.4533 12.4638C75.3693 12.3798 75.2913 12.2418 75.2193 12.0498C75.0873 11.6658 74.9073 11.4078 74.6793 11.2758C74.4513 11.1438 74.1813 11.0778 73.8693 11.0778C73.4733 11.0778 73.1553 11.1858 72.9153 11.4018C72.6873 11.6058 72.5613 11.9838 72.5373 12.5358C72.5013 13.5198 72.5013 14.5278 72.5373 15.5598C72.5613 16.1118 72.6873 16.4958 72.9153 16.7118C73.1553 16.9158 73.4733 17.0178 73.8693 17.0178C74.1813 17.0178 74.4513 16.9458 74.6793 16.8018C74.9193 16.6578 75.0993 16.4058 75.2193 16.0458C75.2793 15.8418 75.3573 15.7038 75.4533 15.6318C75.5493 15.5598 75.6933 15.5238 75.8853 15.5238H79.5573C79.6653 15.5238 79.7553 15.5658 79.8273 15.6498C79.9113 15.7218 79.9533 15.8118 79.9533 15.9198C79.9413 16.7358 79.7613 17.4378 79.4133 18.0258C79.0773 18.6018 78.6213 19.0758 78.0453 19.4478C77.4693 19.8198 76.8213 20.0958 76.1013 20.2758C75.3933 20.4438 74.6553 20.5278 73.8873 20.5278Z" fill="white"/>
<path d="M94.5761 20.3478C94.4441 20.3478 94.3301 20.2998 94.2341 20.2038C94.1381 20.1078 94.0901 19.9938 94.0901 19.8618V8.23381C94.0901 8.10181 94.1381 7.98781 94.2341 7.89181C94.3301 7.79581 94.4441 7.74781 94.5761 7.74781H103.81C103.942 7.74781 104.056 7.79581 104.152 7.89181C104.248 7.98781 104.296 8.10181 104.296 8.23381V10.7718C104.296 10.9038 104.248 11.0178 104.152 11.1138C104.056 11.2098 103.942 11.2578 103.81 11.2578H98.4101V12.3918H103.414C103.546 12.3918 103.66 12.4398 103.756 12.5358C103.852 12.6318 103.9 12.7458 103.9 12.8778V15.2178C103.9 15.3498 103.852 15.4638 103.756 15.5598C103.66 15.6558 103.546 15.7038 103.414 15.7038H98.4101V16.8378H103.954C104.086 16.8378 104.2 16.8858 104.296 16.9818C104.392 17.0778 104.44 17.1918 104.44 17.3238V19.8618C104.44 19.9938 104.392 20.1078 104.296 20.2038C104.2 20.2998 104.086 20.3478 103.954 20.3478H94.5761Z" fill="white"/>
<path d="M106.222 20.3478C106.114 20.3478 106.018 20.3118 105.934 20.2398C105.862 20.1558 105.826 20.0598 105.826 19.9518C105.826 19.9038 105.832 19.8618 105.844 19.8258L109.858 8.34181C109.894 8.20981 109.978 8.07781 110.11 7.94581C110.242 7.81381 110.428 7.74781 110.668 7.74781H114.574C114.814 7.74781 115 7.81381 115.132 7.94581C115.264 8.07781 115.348 8.20981 115.384 8.34181L119.398 19.8258C119.41 19.8618 119.416 19.9038 119.416 19.9518C119.416 20.0598 119.374 20.1558 119.29 20.2398C119.218 20.3118 119.128 20.3478 119.02 20.3478H115.69C115.462 20.3478 115.294 20.2998 115.186 20.2038C115.09 20.0958 115.024 19.9938 114.988 19.8978L114.556 18.7098H110.686L110.254 19.8978C110.218 19.9938 110.152 20.0958 110.056 20.2038C109.96 20.2998 109.792 20.3478 109.552 20.3478H106.222ZM111.604 15.1998H113.638L112.612 11.8518L111.604 15.1998Z" fill="white"/>
<path d="M121.61 20.3478C121.478 20.3478 121.364 20.2998 121.268 20.2038C121.172 20.1078 121.124 19.9938 121.124 19.8618V8.23381C121.124 8.10181 121.172 7.98781 121.268 7.89181C121.364 7.79581 121.478 7.74781 121.61 7.74781H124.454C124.694 7.74781 124.868 7.80181 124.976 7.90981C125.084 8.01781 125.156 8.10181 125.192 8.16181L128.234 13.1478V8.23381C128.234 8.10181 128.282 7.98781 128.378 7.89181C128.474 7.79581 128.588 7.74781 128.72 7.74781H131.978C132.11 7.74781 132.224 7.79581 132.32 7.89181C132.416 7.98781 132.464 8.10181 132.464 8.23381V19.8618C132.464 19.9938 132.416 20.1078 132.32 20.2038C132.224 20.2998 132.11 20.3478 131.978 20.3478H129.134C128.894 20.3478 128.72 20.2938 128.612 20.1858C128.504 20.0658 128.432 19.9818 128.396 19.9338L125.354 15.3438V19.8618C125.354 19.9938 125.306 20.1078 125.21 20.2038C125.114 20.2998 125 20.3478 124.868 20.3478H121.61Z" fill="white"/>
<path d="M135.654 20.3478C135.522 20.3478 135.408 20.2998 135.312 20.2038C135.216 20.1078 135.168 19.9938 135.168 19.8618V8.23381C135.168 8.10181 135.216 7.98781 135.312 7.89181C135.408 7.79581 135.522 7.74781 135.654 7.74781H144.888C145.02 7.74781 145.134 7.79581 145.23 7.89181C145.326 7.98781 145.374 8.10181 145.374 8.23381V10.7718C145.374 10.9038 145.326 11.0178 145.23 11.1138C145.134 11.2098 145.02 11.2578 144.888 11.2578H139.488V12.3918H144.492C144.624 12.3918 144.738 12.4398 144.834 12.5358C144.93 12.6318 144.978 12.7458 144.978 12.8778V15.2178C144.978 15.3498 144.93 15.4638 144.834 15.5598C144.738 15.6558 144.624 15.7038 144.492 15.7038H139.488V16.8378H145.032C145.164 16.8378 145.278 16.8858 145.374 16.9818C145.47 17.0778 145.518 17.1918 145.518 17.3238V19.8618C145.518 19.9938 145.47 20.1078 145.374 20.2038C145.278 20.2998 145.164 20.3478 145.032 20.3478H135.654Z" fill="white"/>
<path d="M148.38 20.3478C148.248 20.3478 148.134 20.2998 148.038 20.2038C147.942 20.1078 147.894 19.9938 147.894 19.8618V8.23381C147.894 8.10181 147.942 7.98781 148.038 7.89181C148.134 7.79581 148.248 7.74781 148.38 7.74781H153.708C155.436 7.74781 156.786 8.13781 157.758 8.91781C158.73 9.69781 159.216 10.7658 159.216 12.1218C159.216 12.9258 159.03 13.6278 158.658 14.2278C158.298 14.8158 157.836 15.2898 157.272 15.6498L159.486 19.7538C159.522 19.8258 159.54 19.8918 159.54 19.9518C159.54 20.0598 159.498 20.1558 159.414 20.2398C159.342 20.3118 159.252 20.3478 159.144 20.3478H155.454C155.214 20.3478 155.034 20.2878 154.914 20.1678C154.794 20.0478 154.716 19.9458 154.68 19.8618L153.132 16.4238H152.394V19.8618C152.394 19.9938 152.346 20.1078 152.25 20.2038C152.154 20.2998 152.04 20.3478 151.908 20.3478H148.38ZM152.394 13.0038H153.708C153.984 13.0038 154.188 12.9138 154.32 12.7338C154.464 12.5418 154.536 12.3258 154.536 12.0858C154.536 11.8458 154.47 11.6238 154.338 11.4198C154.218 11.2038 154.008 11.0958 153.708 11.0958H152.394V13.0038Z" fill="white"/>
<path d="M88.8513 14.2479L85.6553 14.881C85.6553 14.881 84.4094 16.9555 84.7618 18.7133C85.1139 20.4716 89.0145 23.3541 89.0145 23.3541C89.0145 23.3541 89.2953 22.8844 89.6532 22.2003L89.6521 18.771C89.6519 18.6272 89.8427 18.5771 89.9141 18.7023L90.6611 20.0094C91.0307 19.0489 91.2824 18.0887 91.1539 17.4473C90.8015 15.6894 88.8513 14.2479 88.8513 14.2479ZM82.7579 2.3526L86.2797 1.57001C86.4818 1.53013 86.6785 1.66136 86.7189 1.86337L88.7615 11.8741L88.7615 11.7736C88.9491 11.7364 89.1107 11.9098 89.0606 12.0941L88.6913 13.449L85.4953 14.0821L84.6317 12.9709C84.5141 12.8198 84.5963 12.5986 84.7836 12.5615L82.4653 2.79092C82.4247 2.58908 82.5556 2.39266 82.7579 2.3526Z" fill="white"/>
<path fill-rule="evenodd" clip-rule="evenodd" d="M85.9666 22.3044L89.0101 25.0435L90.722 22.3044H94.6529C95.0317 22.3044 95.3779 22.5184 95.5473 22.8571L96.8951 25.5528C97.2276 26.2177 96.7441 27 96.0007 27H79.5535C78.8399 27 78.356 26.2741 78.6305 25.6154L79.7536 22.9197C79.9089 22.5471 80.273 22.3044 80.6767 22.3044H85.9666Z" fill="white"/>
</svg>
